# xmcd
#
# Track frame offsets:
#	150
#	13050
#	23682
#	35830
#	51540
#	64435
#	76975
#	87987
#	101975
#	117107
#
# Disc length: 1736 seconds
#
# Revision: 0
# Processed by: cddbd v1.4PL0 Copyright (c) Steve Scherf et al.
# Submitted via: dBpowerAMP V4.0
#
DISCID=8806c60a
DTITLE=STEVE HAGGARD - Push Comes To Shove
DYEAR=1992
DGENRE=Country
TTITLE0=There´s Blue (And Then There´s Blue)
TTITLE1=We´re In Love
TTITLE2=Nothing Between Us
TTITLE3=Long Gone By Mornin´
TTITLE4=Me - You =The Blues
TTITLE5=Empty Arms
TTITLE6=Giving Her Up
TTITLE7=Cherokee Falls
TTITLE8=What Town Is This?
TTITLE9=Workin´man´s Hands
EXTD=
EXTT0=
EXTT1=
EXTT2=
EXTT3=
EXTT4=
EXTT5=
EXTT6=
EXTT7=
EXTT8=
EXTT9=
PLAYORDER=
